name rise44.8762peak52.3436fall86.788.mot
datacolumns 19
datarows 14
range 12.92328400000000 12.94494500000000
endheader
time	ground_force1_vx	ground_force1_vy	ground_force1_vz	ground_force1_px	ground_force1_py	ground_force1_pz	ground_force2_vx	ground_force2_vy	ground_force2_vz	ground_force2_px	ground_force2_py	ground_force2_pz	ground_torque1_x	ground_torque1_y	ground_torque1_z	ground_torque2_x	ground_torque2_y	ground_torque2_z	
12.92328400000000	-44.52536400000000	816.16069700000003	59.87372400000000	0.07320100000000	0.00000000000000	0.10227400000000	-8.97529900000000	43.59135400000000	6.65089300000000	0.32037200000000	0.00000000000000	-0.09421400000000	0.00000000000000	16.40897500000000	0.00000000000000	0.00000000000000	3.03172800000000	0.00000000000000	
12.92494600000000	-44.53147500000000	813.49293299999999	59.69152500000000	0.07272000000000	0.00000000000000	0.10214600000000	-9.71790400000000	49.65587900000000	7.34040900000000	0.32340900000000	0.00000000000000	-0.09461600000000	0.00000000000000	16.26372100000000	0.00000000000000	0.00000000000000	3.40799000000000	0.00000000000000	
12.92661400000000	-44.55210000000000	810.71266300000002	59.48492600000000	0.07224500000000	0.00000000000000	0.10201200000000	-10.30942800000000	55.61668200000000	7.95153400000000	0.32620400000000	0.00000000000000	-0.09500200000000	0.00000000000000	16.11994200000000	0.00000000000000	0.00000000000000	3.76074200000000	0.00000000000000	
12.92828200000000	-44.58830500000000	807.82078100000001	59.25382100000000	0.07177500000000	0.00000000000000	0.10187400000000	-10.73633000000000	61.41230600000000	8.47361400000000	0.32878600000000	0.00000000000000	-0.09537500000000	0.00000000000000	15.97791500000000	0.00000000000000	0.00000000000000	4.08428200000000	0.00000000000000	
12.92995200000000	-44.64109400000000	804.81815300000005	58.99815000000000	0.07130900000000	0.00000000000000	0.10173100000000	-10.99329100000000	67.00632600000000	8.90118300000000	0.33117800000000	0.00000000000000	-0.09573600000000	0.00000000000000	15.83790800000000	0.00000000000000	0.00000000000000	4.37507000000000	0.00000000000000	
12.93161600000000	-44.71141000000000	801.70560499999999	58.71789400000000	0.07084800000000	0.00000000000000	0.10158400000000	-11.08249900000000	72.38661700000000	9.23360700000000	0.33339900000000	0.00000000000000	-0.09608700000000	0.00000000000000	15.70017800000000	0.00000000000000	0.00000000000000	4.63165900000000	0.00000000000000	
12.93327800000000	-44.80012600000000	798.48392000000001	58.41308000000000	0.07039100000000	0.00000000000000	0.10143100000000	-11.01244300000000	77.56272900000000	9.47440500000000	0.33546700000000	0.00000000000000	-0.09642900000000	0.00000000000000	15.56496800000000	0.00000000000000	0.00000000000000	4.85446700000000	0.00000000000000	
12.93495300000000	-44.90804100000000	795.15382999999997	58.08377700000000	0.06993700000000	0.00000000000000	0.10127400000000	-10.79638600000000	82.56194400000000	9.63034000000000	0.33739700000000	0.00000000000000	-0.09676200000000	0.00000000000000	15.43250900000000	0.00000000000000	0.00000000000000	5.04543200000000	0.00000000000000	
12.93661700000000	-45.03587900000000	791.71600699999999	57.73009700000000	0.06948600000000	0.00000000000000	0.10111300000000	-10.45072100000000	87.42454800000000	9.71040000000000	0.33920000000000	0.00000000000000	-0.09708800000000	0.00000000000000	15.30301700000000	0.00000000000000	0.00000000000000	5.20760400000000	0.00000000000000	
12.93827800000000	-45.18428000000000	788.17106400000000	57.35219500000000	0.06903700000000	0.00000000000000	0.10094600000000	-9.99335100000000	92.19886200000001	9.72478100000000	0.34088800000000	0.00000000000000	-0.09740700000000	0.00000000000000	15.17669400000000	0.00000000000000	0.00000000000000	5.34471400000000	0.00000000000000	
12.93994600000000	-45.35379900000000	784.51954699999999	56.95026700000000	0.06859000000000	0.00000000000000	0.10077500000000	-9.44222200000000	96.93647199999999	9.68394100000000	0.34247100000000	0.00000000000000	-0.09771900000000	0.00000000000000	15.05372600000000	0.00000000000000	0.00000000000000	5.46076500000000	0.00000000000000	
12.94161900000000	-45.54490000000000	780.76193100000000	56.52455000000000	0.06814400000000	0.00000000000000	0.10060000000000	-8.81410500000000	101.68799700000000	9.59779900000000	0.34395500000000	0.00000000000000	-0.09802600000000	0.00000000000000	14.93428400000000	0.00000000000000	0.00000000000000	5.55966900000000	0.00000000000000	
12.94328200000000	-45.75795500000000	776.89861699999994	56.07532000000000	0.06770000000000	0.00000000000000	0.10042000000000	-8.12367900000000	106.49965200000000	9.47511100000000	0.34535000000000	0.00000000000000	-0.09832700000000	0.00000000000000	14.81852000000000	0.00000000000000	0.00000000000000	5.64495700000000	0.00000000000000	
12.94494500000000	-45.99324100000000	772.92993100000001	55.60289400000000	0.06725500000000	0.00000000000000	0.10023500000000	-7.38292900000000	111.41070700000000	9.32304900000000	0.34666100000000	0.00000000000000	-0.09862300000000	0.00000000000000	14.70657200000000	0.00000000000000	0.00000000000000	5.71957000000000	0.00000000000000	
